<?xml version="1.0" encoding="UTF-8" standalone="no"?>
<!-- Created with Inkscape (http://www.inkscape.org/) -->

<svg
   width="19.348248mm"
   height="19.348251mm"
   viewBox="0 0 19.348248 19.348251"
   version="1.1"
   id="svg21"
   xmlns:inkscape="http://www.inkscape.org/namespaces/inkscape"
   xmlns:sodipodi="http://sodipodi.sourceforge.net/DTD/sodipodi-0.dtd"
   xmlns="http://www.w3.org/2000/svg"
   xmlns:svg="http://www.w3.org/2000/svg">
  <sodipodi:namedview
     id="namedview23"
     pagecolor="#ffffff"
     bordercolor="#000000"
     borderopacity="0.25"
     inkscape:showpageshadow="2"
     inkscape:pageopacity="0.0"
     inkscape:pagecheckerboard="0"
     inkscape:deskcolor="#d1d1d1"
     inkscape:document-units="mm"
     showgrid="false" />
  <defs
     id="defs18" />
  <g
     inkscape:groupmode="layer"
     id="layer2"
     inkscape:label="cog-wheel"
     transform="translate(-62.853513,-146.29075)">
    <path
       id="path3592"
       style="fill:#858585;fill-opacity:1;stroke:#000000;stroke-width:0.482291;stroke-dasharray:none;stroke-opacity:1"
       d="m 72.527698,146.5319 a 9.4329365,9.4329365 0 0 0 -1.462118,0.11606 c -0.201359,0.70289 -0.312182,1.51198 -0.373675,2.23436 a 7.5785533,7.5785533 0 0 0 -1.682025,0.64301 c -0.590713,-0.44755 -1.277696,-0.91425 -1.947211,-1.2427 a 9.4329365,9.4329365 0 0 0 -2.245101,2.25499 c 0.329271,0.60258 0.785628,1.21735 1.239156,1.76342 a 7.5785533,7.5785533 0 0 0 -0.832897,1.9438 c -0.685749,0.0882 -1.411238,0.2226 -2.036907,0.43115 a 9.4329365,9.4329365 0 0 0 -0.09226,1.28883 9.4329365,9.4329365 0 0 0 0.168654,1.74011 c 0.591808,0.16718 1.266711,0.267 1.911454,0.32608 a 7.5785533,7.5785533 0 0 0 0.810443,2.01323 c -0.382388,0.47447 -0.758997,0.99258 -1.052074,1.50447 a 9.4329365,9.4329365 0 0 0 2.274145,2.20519 c 0.482342,-0.29175 0.967929,-0.65985 1.416963,-1.03597 a 7.5785533,7.5785533 0 0 0 2.118672,0.87232 c 0.06728,0.5756 0.167714,1.16562 0.320711,1.69118 a 9.4329365,9.4329365 0 0 0 1.46407,0.11642 9.4329365,9.4329365 0 0 0 1.592938,-0.14083 c 0.156622,-0.52892 0.26117,-1.12225 0.332428,-1.7018 a 7.5785533,7.5785533 0 0 0 2.237167,-0.9941 c 0.469291,0.35775 0.973786,0.70247 1.468464,0.96348 a 9.4329365,9.4329365 0 0 0 2.13722,-2.2113 c -0.295739,-0.51406 -0.685597,-1.03666 -1.083803,-1.51472 a 7.5785533,7.5785533 0 0 0 0.751375,-2.10707 c 0.639807,-0.0855 1.310226,-0.21207 1.900837,-0.40053 a 9.4329365,9.4329365 0 0 0 0.09629,-1.32616 9.4329365,9.4329365 0 0 0 -0.170728,-1.78235 c -0.653265,-0.17715 -1.392313,-0.27849 -2.064,-0.3362 a 7.5785533,7.5785533 0 0 0 -0.76529,-1.63004 c 0.421732,-0.55376 0.860613,-1.19533 1.177042,-1.82396 a 9.4329365,9.4329365 0 0 0 -2.253888,-2.19128 c -0.645951,0.35478 -1.300524,0.84508 -1.854708,1.30542 a 7.5785533,7.5785533 0 0 0 -1.518984,-0.59248 c -0.06893,-0.72008 -0.188145,-1.53598 -0.397474,-2.24706 a 9.4329365,9.4329365 0 0 0 -1.584883,-0.13497 z m 0.02135,6.31916 a 3.4680403,3.4680403 0 0 1 3.468027,3.46802 3.4680403,3.4680403 0 0 1 -3.468027,3.46803 3.4680403,3.4680403 0 0 1 -3.468026,-3.46803 3.4680403,3.4680403 0 0 1 3.468026,-3.46802 z" />
  </g>
</svg>
